<?xml version="1.0" encoding="UTF-8" standalone="no"?>
<svg
   xmlns:dc="http://purl.org/dc/elements/1.1/"
   xmlns:cc="http://creativecommons.org/ns#"
   xmlns:rdf="http://www.w3.org/1999/02/22-rdf-syntax-ns#"
   xmlns:svg="http://www.w3.org/2000/svg"
   xmlns="http://www.w3.org/2000/svg"
   xmlns:sodipodi="http://sodipodi.sourceforge.net/DTD/sodipodi-0.dtd"
   xmlns:inkscape="http://www.inkscape.org/namespaces/inkscape"
   sodipodi:docname="drawing.svg"
   inkscape:version="1.0 (4035a4fb49, 2020-05-01)"
   id="svg8"
   version="1.1"
   viewBox="0 0 210 297"
   height="297mm"
   width="210mm">
  <defs
     id="defs2" />
  <sodipodi:namedview
     inkscape:window-maximized="1"
     inkscape:window-y="-11"
     inkscape:window-x="-11"
     inkscape:window-height="1046"
     inkscape:window-width="1920"
     showgrid="false"
     inkscape:document-rotation="0"
     inkscape:current-layer="layer1"
     inkscape:document-units="mm"
     inkscape:cy="687.19587"
     inkscape:cx="414.868"
     inkscape:zoom="1.4"
     inkscape:pageshadow="2"
     inkscape:pageopacity="0.0"
     borderopacity="1.0"
     bordercolor="#666666"
     pagecolor="#ffffff"
     id="base" />
  <metadata
     id="metadata5">
    <rdf:RDF>
      <cc:Work
         rdf:about="">
        <dc:format>image/svg+xml</dc:format>
        <dc:type
           rdf:resource="http://purl.org/dc/dcmitype/StillImage" />
        <dc:title></dc:title>
      </cc:Work>
    </rdf:RDF>
  </metadata>
  <g
     style="display:inline"
     inkscape:label="Layer 2"
     id="layer2"
     inkscape:groupmode="layer">
    <g
       transform="translate(-5.1026786,-2.4568452)"
       id="g2786">
      <path
         style="opacity:0.98722;fill:#1A7370;fill-opacity:1;stroke:#00a900;stroke-width:0.170119;stroke-linejoin:round;stroke-opacity:0"
         d="m 152.30785,218.80718 c -17.41053,-0.0674 -34.01238,-0.14186 -36.893,-0.16544 l -5.23749,-0.0429 9.67871,-9.56964 c 5.32329,-5.2633 9.73728,-9.55666 9.80885,-9.5408 0.0716,0.0159 4.64737,4.3222 10.16842,9.56964 5.52106,5.24744 10.10419,9.55979 10.18475,9.58301 0.0806,0.0232 3.82314,-4.14756 8.31685,-9.2684 4.49371,-5.12084 8.31396,-9.44743 8.48943,-9.61465 0.30867,-0.29414 0.60494,0.009 9.10653,9.30657 4.83312,5.28583 8.83618,9.61059 8.8957,9.61059 0.0595,0 4.68519,-4.27618 10.27928,-9.50263 5.59408,-5.22645 10.22305,-9.51772 10.28659,-9.53615 0.0936,-0.0272 5.73688,5.78913 17.69493,18.23736 l 1.06315,1.10673 -20.0936,-0.0254 c -11.05148,-0.0139 -34.33857,-0.0805 -51.7491,-0.14794 z"
         id="path2774" />
      <path
         style="opacity:0.98722;fill:#1A7370;fill-opacity:1;stroke:#00a900;stroke-width:0.172596;stroke-linejoin:round;stroke-opacity:0"
         d="m 83.916914,218.52481 -9.094534,-0.0786 8.47308,-9.31181 c 4.660192,-5.12151 8.577654,-9.39212 8.705471,-9.49026 0.178914,-0.13738 2.336284,1.98343 9.375379,9.21647 5.02864,5.1672 9.21299,9.48933 9.29855,9.60475 0.16644,0.22449 -6.05946,0.23833 -26.757946,0.0594 z"
         id="path2776" />
      <path
         style="opacity:0.98722;fill:#1A7370;fill-opacity:1;stroke:#00a900;stroke-width:0.175963;stroke-linejoin:round;stroke-opacity:0"
         d="m 40.594713,218.40811 c -3.539579,-0.0234 -6.405701,-0.0965 -6.369158,-0.1624 0.160541,-0.28958 20.098088,-18.78192 20.2225,-18.75663 0.128501,0.0261 21.038715,18.56893 21.301065,18.88941 0.108848,0.13296 -17.303661,0.14764 -35.154407,0.0296 z"
         id="path2778" />
      <path
         style="opacity:0.98722;fill:#1A7370;fill-opacity:1;stroke:#00a900;stroke-width:0.170119;stroke-linejoin:round;stroke-opacity:0"
         d="m 1.4744431,218.22974 -1.06034183,-0.0888 8.29610503,-9.00651 c 4.5628577,-4.95359 8.3992747,-9.08701 8.5253717,-9.1854 0.224099,-0.17485 1.229433,0.88986 15.11147,16.00387 l 2.220002,2.41702 -16.016132,-0.0257 c -8.8088733,-0.0141 -16.493287,-0.0656 -17.0764749,-0.11449 z"
         id="path2780" />
    </g>
  </g>
</svg>
